# Blender v2.83.5 OBJ File: ''
# www.blender.org
mtllib fence_1.mtl
o plane.005
v 0.375000 0.625000 1.000000
v 0.375000 0.625000 -0.000000
v 0.375000 0.375000 -0.000000
v 0.375000 0.375000 1.000000
vt 0.187809 0.000000
vt 0.187809 0.727273
vt 0.000000 0.727273
vt 0.000000 0.000000
vn -1.0000 0.0000 0.0000
usemtl m_75deb572-5792-a0e4-19cb-9cbeab81505f.001
s 1
f 1/1/1 2/2/1 3/3/1 4/4/1
o plane.006
v 0.625000 0.625000 1.000000
v 0.625000 0.375000 1.000000
v 0.625000 0.375000 -0.000000
v 0.625000 0.625000 -0.000000
vt 0.751237 0.727273
vt 0.563428 0.727273
vt 0.563428 0.000000
vt 0.751237 0.000000
vn 1.0000 0.0000 -0.0000
usemtl m_75deb572-5792-a0e4-19cb-9cbeab81505f.001
s 1
f 5/5/2 6/6/2 7/7/2 8/8/2
o plane.007
v 0.375000 0.625000 1.000000
v 0.625000 0.625000 1.000000
v 0.625000 0.625000 -0.000000
v 0.375000 0.625000 -0.000000
v 0.375000 0.625000 0.774596
v 0.625000 0.625000 0.774595
v 0.375000 0.625000 0.378473
v 0.625000 0.625000 0.378472
v 0.559395 0.625000 0.672381
v 0.440605 0.625000 0.672381
v 0.440605 0.625000 0.465424
v 0.559395 0.625000 0.465424
v 0.438833 0.625000 0.293638
v 0.438833 0.625000 0.084834
v 0.561167 0.625000 0.293638
v 0.561167 0.625000 0.084834
v 0.438833 1.000000 0.293638
v 0.438833 1.000000 0.084834
v 0.561167 1.000000 0.293638
v 0.561167 1.000000 0.084834
v 0.440605 1.000000 0.672381
v 0.440605 1.000000 0.465424
v 0.559395 1.000000 0.672381
v 0.559395 1.000000 0.465424
vt 0.563428 0.727273
vt 0.652667 0.727273
vt 0.652667 1.000000
vt 0.563428 1.000000
vt 0.375618 0.727273
vt 0.187809 0.727273
vt 0.187809 0.563342
vt 0.375618 0.563342
vt 0.998613 0.818182
vt 0.906711 0.818182
vt 0.906711 0.545454
vt 0.998613 0.545454
vt 0.237094 0.489004
vt 0.326333 0.489004
vt 0.326333 0.338490
vt 0.375618 0.275253
vt 0.237094 0.338490
vt 0.187809 0.275253
vt 0.327665 0.213555
vt 0.327665 0.061698
vt 0.375618 0.000000
vt 0.235763 0.061698
vt 0.235763 0.213555
vt 0.187809 0.000000
vt 0.659334 0.727273
vt 0.751237 0.727273
vt 0.751237 0.879130
vt 0.659334 0.879130
vt 0.840476 0.968696
vt 0.751237 0.968696
vt 0.751237 0.818182
vt 0.840476 0.818182
vt 0.000000 0.727273
vt 0.155474 0.727273
vt 0.155474 1.000000
vt 0.000000 1.000000
vt 0.997337 0.545454
vt 0.908098 0.545454
vt 0.908098 0.272727
vt 0.997337 0.272727
vt 0.751237 0.000000
vt 0.908098 0.000000
vt 0.908098 0.272727
vt 0.751237 0.272727
vt 0.908098 0.545454
vt 0.751237 0.545454
vt 0.751237 0.272727
vt 0.908098 0.272727
vt 0.751237 0.545454
vt 0.906711 0.545454
vt 0.906711 0.818182
vt 0.751237 0.818182
vt 1.000000 0.272727
vt 0.908098 0.272727
vt 0.908098 0.000000
vt 1.000000 0.000000
vn 0.0000 0.0000 1.0000
vn 0.0000 1.0000 0.0000
vn 1.0000 0.0000 0.0000
vn -0.0000 0.0000 -1.0000
vn -1.0000 0.0000 0.0000
usemtl m_75deb572-5792-a0e4-19cb-9cbeab81505f.001
s off
f 18/9/3 17/10/3 31/11/3 29/12/3
f 9/13/4 10/14/4 14/15/4 13/16/4
f 21/17/3 23/18/3 27/19/3 25/20/3
f 17/21/4 18/22/4 13/16/4 14/15/4
f 18/22/4 19/23/4 15/24/4 13/16/4
f 20/25/4 17/21/4 14/15/4 16/26/4
f 19/23/4 20/25/4 16/26/4 15/24/4
f 21/27/4 22/28/4 12/29/4 15/24/4
f 24/30/4 23/31/4 16/26/4 11/32/4
f 22/28/4 24/30/4 11/32/4 12/29/4
f 23/31/4 21/27/4 15/24/4 16/26/4
f 25/33/4 27/34/4 28/35/4 26/36/4
f 29/37/4 31/38/4 32/39/4 30/40/4
f 17/41/5 20/42/5 32/43/5 31/44/5
f 20/45/6 19/46/6 30/47/6 32/48/6
f 23/49/5 24/50/5 28/51/5 27/52/5
f 22/53/7 21/54/7 25/55/7 26/56/7
f 19/57/7 18/58/7 29/59/7 30/60/7
f 24/61/6 22/62/6 26/63/6 28/64/6
o plane.008
v 0.375000 0.375000 1.000000
v 0.375000 0.375000 -0.000000
v 0.625000 0.375000 -0.000000
v 0.625000 0.375000 1.000000
vt 0.375618 0.727273
vt 0.563427 0.727273
vt 0.563428 0.000000
vt 0.375619 0.000000
vn 0.0000 1.0000 -0.0000
usemtl m_75deb572-5792-a0e4-19cb-9cbeab81505f.001
s 1
f 33/65/8 36/66/8 35/67/8 34/68/8
o plane.009
v 0.625000 0.625000 1.000000
v 0.375000 0.625000 1.000000
v 0.375000 0.375000 1.000000
v 0.625000 0.375000 1.000000
vt 0.375618 0.727273
vt 0.187809 0.727273
vt 0.187809 0.909091
vt 0.375618 0.909091
vn -0.0000 0.0000 -1.0000
usemtl m_75deb572-5792-a0e4-19cb-9cbeab81505f.001
s 1
f 37/69/9 40/70/9 39/71/9 38/72/9
o plane.010
v 0.625000 0.625000 -0.000000
v 0.625000 0.375000 -0.000000
v 0.375000 0.375000 -0.000000
v 0.375000 0.625000 -0.000000
vt 0.375618 0.727273
vt 0.375618 0.909091
vt 0.563428 0.909091
vt 0.563428 0.727273
vn 0.0000 0.0000 1.0000
usemtl m_75deb572-5792-a0e4-19cb-9cbeab81505f.001
s 1
f 41/73/10 44/74/10 43/75/10 42/76/10
