# Blender v2.83.5 OBJ File: ''
# www.blender.org
mtllib fern_large.mtl
o plane.005
v 0.642582 0.168750 0.006628
v 1.155612 0.168750 1.416168
v 1.155612 0.918750 1.416168
v 0.642582 0.918750 0.006628
vt 0.375000 0.500000
vt 0.375000 1.000000
vt 0.125000 1.000000
vt 0.125000 0.500000
vn -0.9397 0.0000 0.3420
usemtl m_290f29f6-75b5-4614-0e97-e5063be8731d
s 1
f 1/1/1 2/2/1 3/3/1 4/4/1
o plane.006
v 0.175000 0.451168 0.006628
v 0.175000 -0.061862 1.416168
v 0.925000 -0.061862 1.416168
v 0.925000 0.451168 0.006628
vt 0.375000 0.500000
vt 0.375000 1.000000
vt 0.125000 1.000000
vt 0.125000 0.500000
vn 0.0000 0.9397 0.3420
usemtl m_290f29f6-75b5-4614-0e97-e5063be8731d
s 1
f 5/5/2 6/6/2 7/7/2 8/8/2
o plane.007
v 0.457419 0.918750 0.006628
v -0.055611 0.918750 1.416168
v -0.055611 0.168750 1.416168
v 0.457419 0.168750 0.006628
vt 0.375000 0.500000
vt 0.375000 1.000000
vt 0.125000 1.000000
vt 0.125000 0.500000
vn 0.9397 -0.0000 0.3420
usemtl m_290f29f6-75b5-4614-0e97-e5063be8731d
s 1
f 9/9/3 10/10/3 11/11/3 12/12/3
o plane.008
v 0.925000 0.636331 0.006628
v 0.925000 1.149361 1.416168
v 0.175000 1.149361 1.416168
v 0.175000 0.636331 0.006628
vt 0.375000 0.500000
vt 0.375000 1.000000
vt 0.125000 1.000000
vt 0.125000 0.500000
vn -0.0000 -0.9397 0.3420
usemtl m_290f29f6-75b5-4614-0e97-e5063be8731d
s 1
f 13/13/4 14/14/4 15/15/4 16/16/4
o plane.009
v -0.098207 1.457123 0.706456
v -0.363372 1.191957 0.706456
v -0.098207 0.926793 0.706456
v 0.166957 1.191957 0.706456
vt 0.125000 1.000000
vt 0.000000 1.000000
vt 0.000000 0.875000
vt 0.125000 0.875000
vn 0.0000 0.0000 1.0000
usemtl m_290f29f6-75b5-4614-0e97-e5063be8731d
s 1
f 17/17/5 18/18/5 19/19/5 20/20/5
o plane.010
v 0.166957 1.191957 0.706456
v -0.098207 0.926793 0.706456
v 0.370543 0.458043 0.043544
v 0.635707 0.723207 0.043544
vt 0.125000 0.875000
vt 0.000000 0.875000
vt 0.000000 0.625000
vt 0.125000 0.625000
vn 0.5000 -0.5000 0.7071
usemtl m_290f29f6-75b5-4614-0e97-e5063be8731d
s 1
f 21/21/6 22/22/6 23/23/6 24/24/6
o plane.011
v 0.933043 -0.104457 0.706456
v 1.198207 0.160707 0.706456
v 0.729457 0.629457 0.043544
v 0.464293 0.364293 0.043544
vt 0.125000 0.875000
vt 0.000000 0.875000
vt 0.000000 0.625000
vt 0.125000 0.625000
vn -0.5000 0.5000 0.7071
usemtl m_290f29f6-75b5-4614-0e97-e5063be8731d
s 1
f 25/25/7 26/26/7 27/27/7 28/28/7
o plane.012
v 1.198207 -0.369623 0.706456
v 1.463372 -0.104457 0.706456
v 1.198207 0.160707 0.706456
v 0.933043 -0.104457 0.706456
vt 0.125000 1.000000
vt 0.000000 1.000000
vt 0.000000 0.875000
vt 0.125000 0.875000
vn 0.0000 0.0000 1.0000
usemtl m_290f29f6-75b5-4614-0e97-e5063be8731d
s 1
f 29/29/8 30/30/8 31/31/8 32/32/8
o plane.013
v -0.363372 -0.104457 0.706456
v -0.098207 -0.369623 0.706456
v 0.166957 -0.104457 0.706456
v -0.098207 0.160707 0.706456
vt 0.125000 1.000000
vt 0.000000 1.000000
vt 0.000000 0.875000
vt 0.125000 0.875000
vn 0.0000 0.0000 1.0000
usemtl m_290f29f6-75b5-4614-0e97-e5063be8731d
s 1
f 33/33/9 34/34/9 35/35/9 36/36/9
o plane.014
v -0.098207 0.160707 0.706456
v 0.166957 -0.104457 0.706456
v 0.635707 0.364293 0.043544
v 0.370543 0.629457 0.043544
vt 0.125000 0.875000
vt 0.000000 0.875000
vt 0.000000 0.625000
vt 0.125000 0.625000
vn 0.5000 0.5000 0.7071
usemtl m_290f29f6-75b5-4614-0e97-e5063be8731d
s 1
f 37/37/10 38/38/10 39/39/10 40/40/10
o plane.015
v 1.198207 0.926793 0.706456
v 0.933043 1.191957 0.706456
v 0.464293 0.723207 0.043544
v 0.729457 0.458043 0.043544
vt 0.125000 0.875000
vt 0.000000 0.875000
vt 0.000000 0.625000
vt 0.125000 0.625000
vn -0.5000 -0.5000 0.7071
usemtl m_290f29f6-75b5-4614-0e97-e5063be8731d
s 1
f 41/41/11 42/42/11 43/43/11 44/44/11
o plane.016
v 1.463373 1.191957 0.706456
v 1.198207 1.457122 0.706456
v 0.933043 1.191957 0.706456
v 1.198207 0.926793 0.706456
vt 0.125000 1.000000
vt 0.000000 1.000000
vt 0.000000 0.875000
vt 0.125000 0.875000
vn -0.0000 0.0000 1.0000
usemtl m_290f29f6-75b5-4614-0e97-e5063be8731d
s 1
f 45/45/12 46/46/12 47/47/12 48/48/12
