# Made in Blockbench 4.12.5
mtllib materials.mtl

o plane
v -0.1875 0.004419125966618844 0.0617207888609351
v -0.18750000000000244 0.9441117467525237 0.4037409321866141
v 0.3125 0.0044191259666197325 0.061720788860936196
v 0.31249999999999756 0.9441117467525246 0.40374093218661516
vt 0.375 0.5
vt 0.375 1
vt 0.125 1
vt 0.125 0.5
vn 1.454732309464923e-15 0.34202014332567887 -0.9396926207859047
usemtl m_290f29f6-75b5-4614-0e97-e5063be8731d
f 1/1/1 2/2/1 4/3/1 3/4/1
o plane
v 0.0007792111390633254 0.004419125966619792 -0.25
v -0.3412409321866215 0.9441117467525226 -0.24999999999999667
v 0.0007792111390653238 0.004419125966618793 0.25
v -0.3412409321866195 0.9441117467525216 0.25000000000000333
vt 0.375 0.5
vt 0.375 1
vt 0.12499999999999997 1
vt 0.125 0.5
vn 0.9396926207859025 0.3420201433256847 -3.0722726327903257e-15
usemtl m_290f29f6-75b5-4614-0e97-e5063be8731d
f 5/5/2 6/6/2 8/7/2 7/8/2
o plane
v 0.3125 0.004419125966619285 -0.06172078886093552
v 0.3125000000000002 0.9441117467525226 -0.4037409321866187
v -0.1875 0.004419125966619298 -0.06172078886093581
v -0.18749999999999978 0.9441117467525226 -0.403740932186619
vt 0.375 0.5
vt 0.375 1
vt 0.125 1
vt 0.125 0.5
vn -5.249221325049081e-16 0.3420201433256831 0.9396926207859031
usemtl m_290f29f6-75b5-4614-0e97-e5063be8731d
f 9/9/3 10/10/3 12/11/3 11/12/3
o plane
v 0.1242207888609356 0.004419125966619252 0.25
v 0.4662409321866045 0.944111746752528 0.2500000000000002
v 0.1242207888609356 0.0044191259666193075 -0.25
v 0.4662409321866045 0.944111746752528 -0.24999999999999978
vt 0.375 0.5
vt 0.375 1
vt 0.125 1
vt 0.125 0.5
vn -0.9396926207859084 0.3420201433256688 3.797186380057536e-17
usemtl m_290f29f6-75b5-4614-0e97-e5063be8731d
f 13/13/4 14/14/4 16/15/4 15/16/4
o plane
v 0.6714150429449552 0.4709708691207961 -0.4321383476483184
v 0.4946383476483184 0.4709708691207961 -0.6089150429449552
v 0.4946383476483184 0.4709708691207961 -0.2553616523516815
v 0.3178616523516815 0.4709708691207961 -0.4321383476483184
vt 0.125 1
vt 0 1
vt 0 0.875
vt 0.125 0.875
vn 0 1 0
usemtl m_290f29f6-75b5-4614-0e97-e5063be8731d
f 17/17/5 18/18/5 20/19/5 19/20/5
o plane
v 0.4946383476483184 0.4709708691207961 -0.2553616523516815
v 0.3178616523516815 0.4709708691207961 -0.4321383476483184
v 0.18213834764831846 0.029029130879203918 0.057138347648318405
v 0.005361652351681595 0.029029130879203918 -0.11963834764831846
vt 0.125 0.875
vt 0 0.875
vt 0 0.625
vt 0.125 0.625
vn -0.5 0.7071067811865476 0.5
usemtl m_290f29f6-75b5-4614-0e97-e5063be8731d
f 21/21/6 22/22/6 24/23/6 23/24/6
o plane
v -0.36963834764831804 0.4709708691207961 0.25536165235168157
v -0.19286165235168148 0.47097086912079605 0.4321383476483187
v -0.05713834764831774 0.029029130879203946 -0.05713834764831793
v 0.11963834764831885 0.02902913087920389 0.11963834764831921
vt 0.125 0.875
vt 0 0.875
vt 0 0.625
vt 0.125 0.625
vn 0.5000000000000009 0.7071067811865475 -0.4999999999999991
usemtl m_290f29f6-75b5-4614-0e97-e5063be8731d
f 25/25/7 26/26/7 28/27/7 27/28/7
o plane
v -0.5464150429449552 0.4709708691207961 0.43213834764831816
v -0.36963834764831865 0.4709708691207961 0.6089150429449552
v -0.3696383476483181 0.4709708691207961 0.2553616523516815
v -0.19286165235168148 0.4709708691207961 0.43213834764831865
vt 0.125 1
vt 0 1
vt 0 0.875
vt 0.125 0.875
vn 1.2246467991473512e-16 1 1.224646799147353e-16
usemtl m_290f29f6-75b5-4614-0e97-e5063be8731d
f 29/29/8 30/30/8 32/31/8 31/32/8
o plane
v -0.3696383440360165 0.4709708691207961 -0.6089150428319668
v -0.5464150430579436 0.4709708691207961 -0.43213835126062033
v -0.1928616524646699 0.4709708691207961 -0.4321383438100397
v -0.36963835148659707 0.4709708691207961 -0.2553616522386931
vt 0.125 1
vt 0 1
vt 0 0.875
vt 0.125 0.875
vn -9.322068685965288e-18 1 0
usemtl m_290f29f6-75b5-4614-0e97-e5063be8731d
f 33/33/9 34/34/9 36/35/9 35/36/9
o plane
v -0.19286165246466994 0.4709708691207961 -0.4321383438100397
v -0.36963835148659707 0.4709708691207961 -0.2553616522386931
v 0.11963834094988487 0.029029130879203918 -0.11963833722459469
v -0.05713835807204229 0.029029130879203918 0.057138354346751824
vt 0.125 0.875
vt 0 0.875
vt 0 0.625
vt 0.125 0.625
vn 0.49999998946328766 0.7071067811865476 0.5000000105367122
usemtl m_290f29f6-75b5-4614-0e97-e5063be8731d
f 37/37/10 38/38/10 40/39/10 39/40/10
o plane
v 0.3178616523516815 0.4709708691207961 0.43213834764831843
v 0.4946383476483184 0.4709708691207961 0.25536165235168157
v 0.005361652351681512 0.029029130879203918 0.11963834764831856
v 0.18213834764831838 0.029029130879203918 -0.05713834764831832
vt 0.125 0.875
vt 0 0.875
vt 0 0.625
vt 0.125 0.625
vn -0.5000000000000001 0.7071067811865475 -0.5
usemtl m_290f29f6-75b5-4614-0e97-e5063be8731d
f 41/41/11 42/42/11 44/43/11 43/44/11
o plane
v 0.49463834764831843 0.4709708691207961 0.6089150429449552
v 0.6714150429449552 0.4709708691207961 0.4321383476483183
v 0.3178616523516815 0.4709708691207961 0.43213834764831843
v 0.4946383476483183 0.4709708691207961 0.2553616523516815
vt 0.125 1
vt 0 1
vt 0 0.875
vt 0.125 0.875
vn 0 1 0
usemtl m_290f29f6-75b5-4614-0e97-e5063be8731d
f 45/45/12 46/46/12 48/47/12 47/48/12