# Blender v2.83.5 OBJ File: ''
# www.blender.org
mtllib fern2.mtl
o plane.005
v 0.561721 0.312500 0.004419
v 0.903741 0.312500 0.944112
v 0.903741 0.812500 0.944112
v 0.561721 0.812500 0.004419
vt 0.375000 0.500000
vt 0.375000 1.000000
vt 0.125000 1.000000
vt 0.125000 0.500000
vn -0.9397 0.0000 0.3420
usemtl m_290f29f6-75b5-4614-0e97-e5063be8731d
s 1
f 1/1/1 2/2/1 3/3/1 4/4/1
o plane.006
v 0.250000 0.500779 0.004419
v 0.250000 0.158759 0.944112
v 0.750000 0.158759 0.944112
v 0.750000 0.500779 0.004419
vt 0.375000 0.500000
vt 0.375000 1.000000
vt 0.125000 1.000000
vt 0.125000 0.500000
vn 0.0000 0.9397 0.3420
usemtl m_290f29f6-75b5-4614-0e97-e5063be8731d
s 1
f 5/5/2 6/6/2 7/7/2 8/8/2
o plane.007
v 0.438279 0.812500 0.004419
v 0.096259 0.812500 0.944112
v 0.096259 0.312500 0.944112
v 0.438279 0.312500 0.004419
vt 0.375000 0.500000
vt 0.375000 1.000000
vt 0.125000 1.000000
vt 0.125000 0.500000
vn 0.9397 0.0000 0.3420
usemtl m_290f29f6-75b5-4614-0e97-e5063be8731d
s 1
f 9/9/3 10/10/3 11/11/3 12/12/3
o plane.008
v 0.750000 0.624221 0.004419
v 0.750000 0.966241 0.944112
v 0.250000 0.966241 0.944112
v 0.250000 0.624221 0.004419
vt 0.375000 0.500000
vt 0.375000 1.000000
vt 0.125000 1.000000
vt 0.125000 0.500000
vn 0.0000 -0.9397 0.3420
usemtl m_290f29f6-75b5-4614-0e97-e5063be8731d
s 1
f 13/13/4 14/14/4 15/15/4 16/16/4
o plane.009
v 0.067862 1.171415 0.470971
v -0.108915 0.994638 0.470971
v 0.067862 0.817862 0.470971
v 0.244638 0.994638 0.470971
vt 0.125000 1.000000
vt 0.000000 1.000000
vt 0.000000 0.875000
vt 0.125000 0.875000
vn 0.0000 0.0000 1.0000
usemtl m_290f29f6-75b5-4614-0e97-e5063be8731d
s 1
f 17/17/5 18/18/5 19/19/5 20/20/5
o plane.010
v 0.244638 0.994638 0.470971
v 0.067862 0.817862 0.470971
v 0.380362 0.505362 0.029029
v 0.557138 0.682138 0.029029
vt 0.125000 0.875000
vt 0.000000 0.875000
vt 0.000000 0.625000
vt 0.125000 0.625000
vn 0.5000 -0.5000 0.7071
usemtl m_290f29f6-75b5-4614-0e97-e5063be8731d
s 1
f 21/21/6 22/22/6 23/23/6 24/24/6
o plane.011
v 0.755362 0.130362 0.470971
v 0.932138 0.307138 0.470971
v 0.619638 0.619638 0.029029
v 0.442862 0.442862 0.029029
vt 0.125000 0.875000
vt 0.000000 0.875000
vt 0.000000 0.625000
vt 0.125000 0.625000
vn -0.5000 0.5000 0.7071
usemtl m_290f29f6-75b5-4614-0e97-e5063be8731d
s 1
f 25/25/7 26/26/7 27/27/7 28/28/7
o plane.012
v 0.932138 -0.046415 0.470971
v 1.108915 0.130362 0.470971
v 0.932138 0.307138 0.470971
v 0.755362 0.130362 0.470971
vt 0.125000 1.000000
vt 0.000000 1.000000
vt 0.000000 0.875000
vt 0.125000 0.875000
vn 0.0000 0.0000 1.0000
usemtl m_290f29f6-75b5-4614-0e97-e5063be8731d
s 1
f 29/29/8 30/30/8 31/31/8 32/32/8
o plane.013
v -0.108915 0.130362 0.470971
v 0.067862 -0.046415 0.470971
v 0.244638 0.130362 0.470971
v 0.067862 0.307138 0.470971
vt 0.125000 1.000000
vt 0.000000 1.000000
vt 0.000000 0.875000
vt 0.125000 0.875000
vn 0.0000 0.0000 1.0000
usemtl m_290f29f6-75b5-4614-0e97-e5063be8731d
s 1
f 33/33/9 34/34/9 35/35/9 36/36/9
o plane.014
v 0.067862 0.307138 0.470971
v 0.244638 0.130362 0.470971
v 0.557138 0.442862 0.029029
v 0.380362 0.619638 0.029029
vt 0.125000 0.875000
vt 0.000000 0.875000
vt 0.000000 0.625000
vt 0.125000 0.625000
vn 0.5000 0.5000 0.7071
usemtl m_290f29f6-75b5-4614-0e97-e5063be8731d
s 1
f 37/37/10 38/38/10 39/39/10 40/40/10
o plane.015
v 0.932138 0.817862 0.470971
v 0.755362 0.994638 0.470971
v 0.442862 0.682138 0.029029
v 0.619638 0.505362 0.029029
vt 0.125000 0.875000
vt 0.000000 0.875000
vt 0.000000 0.625000
vt 0.125000 0.625000
vn -0.5000 -0.5000 0.7071
usemtl m_290f29f6-75b5-4614-0e97-e5063be8731d
s 1
f 41/41/11 42/42/11 43/43/11 44/44/11
o plane.016
v 1.108915 0.994638 0.470971
v 0.932138 1.171415 0.470971
v 0.755362 0.994638 0.470971
v 0.932138 0.817862 0.470971
vt 0.125000 1.000000
vt 0.000000 1.000000
vt 0.000000 0.875000
vt 0.125000 0.875000
vn 0.0000 0.0000 1.0000
usemtl m_290f29f6-75b5-4614-0e97-e5063be8731d
s 1
f 45/45/12 46/46/12 47/47/12 48/48/12
