# Blender v2.83.5 OBJ File: ''
# www.blender.org
mtllib grass_model.mtl
o Plane.001
v -0.207000 1.207000 0.000000
v 1.207000 -0.207000 0.000000
v 1.207000 -0.207000 1.879561
v -0.207000 1.207000 1.879561
v -0.207000 -0.207000 0.000000
v 1.207000 1.207000 0.000000
v 1.207000 1.207000 1.879561
v -0.207000 -0.207000 1.879561
vt 0.000000 0.000000
vt 1.000000 0.000000
vt 1.000000 1.000000
vt 0.000000 1.000000
vt 0.000000 0.000000
vt 1.000000 0.000000
vt 1.000000 1.000000
vt 0.000000 1.000000
vn -0.7071 -0.7071 0.0000
vn 0.7071 -0.7071 0.0000
usemtl None.001
s 1
f 1/1/1 2/2/1 3/3/1 4/4/1
f 5/5/2 6/6/2 7/7/2 8/8/2
