# Blender v2.83.5 OBJ File: 'grass_model.blend'
# www.blender.org
mtllib grass_model_smaller.mtl
o Plane.001
v 0.062697 0.602705 0.007525
v 0.988813 0.354552 0.007525
v 0.988813 0.354552 0.917536
v 0.062697 0.602705 0.917536
vt 0.000000 0.000000
vt 1.000000 0.000000
vt 1.000000 1.000000
vt 0.000000 1.000000
vn -0.2588 -0.9659 0.0000
usemtl None.001
s 1
f 1/1/1 2/2/1 3/3/1 4/4/1
o Plane.005
v 0.151619 0.200135 0.008272
v 0.829583 0.878099 0.008272
v 0.829583 0.878099 0.918283
v 0.151619 0.200135 0.918283
vt 0.000000 0.000000
vt 1.000000 0.000000
vt 1.000000 1.000000
vt 0.000000 1.000000
vn 0.7071 -0.7071 0.0000
usemtl None.001
s 1
f 5/5/2 6/6/2 7/7/2 8/8/2
o Plane.006
v 0.398086 0.980931 0.008357
v 0.646238 0.054815 0.008357
v 0.646238 0.054815 0.918368
v 0.398086 0.980931 0.918368
vt 0.000000 0.000000
vt 1.000000 0.000000
vt 1.000000 1.000000
vt 0.000000 1.000000
vn -0.9659 -0.2588 0.0000
usemtl None.001
s 1
f 9/9/3 10/10/3 11/11/3 12/12/3
