# Blender v2.83.5 OBJ File: ''
# www.blender.org
mtllib grass_model_small_extended.mtl
o Plane.001
v -0.322646 0.568477 0.000000
v 1.277070 0.139834 0.000000
v 1.277070 0.139834 1.571896
v -0.322646 0.568477 1.571896
vt 0.000000 0.000000
vt 1.000000 0.000000
vt 1.000000 1.000000
vt 0.000000 1.000000
vn -0.2588 -0.9659 0.0000
usemtl None.001
s 1
f 1/1/1 2/2/1 3/3/1 4/4/1
o Plane.005
v -0.167574 0.046634 0.000000
v 1.003500 1.217708 0.000000
v 1.003500 1.217708 1.571896
v -0.167574 0.046634 1.571896
vt 0.000000 0.000000
vt 1.000000 0.000000
vt 1.000000 1.000000
vt 0.000000 1.000000
vn 0.7071 -0.7071 0.0000
usemtl None.001
s 1
f 5/5/2 6/6/2 7/7/2 8/8/2
o Plane.006
v 0.458869 1.363665 0.000000
v 0.887511 -0.236051 0.000000
v 0.887511 -0.236051 1.571896
v 0.458869 1.363665 1.571896
vt 0.000000 0.000000
vt 1.000000 0.000000
vt 1.000000 1.000000
vt 0.000000 1.000000
vn -0.9659 -0.2588 0.0000
usemtl None.001
s 1
f 9/9/3 10/10/3 11/11/3 12/12/3
