# Blender v2.83.5 OBJ File: ''
# www.blender.org
mtllib grass_model_small_repeated.mtl
o Plane.002
v -0.110081 0.341810 0.217733
v 1.046462 0.031915 0.217733
v 1.046462 0.031915 1.354163
v -0.110081 0.341810 1.354163
v 0.423106 1.152066 0.217733
v 0.083013 0.004040 0.217733
v 0.083013 0.004040 1.354163
v 0.423106 1.152066 1.354163
v 0.126729 1.014734 0.217733
v 0.363740 -0.158916 0.217733
v 0.363740 -0.158916 1.354163
v 0.126729 1.014734 1.354163
v -0.094365 0.691414 0.217733
v 0.752940 -0.154577 0.217733
v 0.752940 -0.154577 1.354163
v -0.094365 0.691414 1.354163
vt 0.000000 0.000000
vt 1.000000 0.000000
vt 1.000000 1.000000
vt 0.000000 1.000000
vt 0.000000 0.000000
vt 1.000000 0.000000
vt 1.000000 1.000000
vt 0.000000 1.000000
vt 0.000000 0.000000
vt 1.000000 0.000000
vt 1.000000 1.000000
vt 0.000000 1.000000
vt 0.000000 0.000000
vt 1.000000 0.000000
vt 1.000000 1.000000
vt 0.000000 1.000000
vn -0.2588 -0.9659 0.0000
vn -0.9588 0.2840 0.0000
vn -0.9802 -0.1979 0.0000
vn -0.7066 -0.7077 0.0000
usemtl None.002
s 1
f 1/1/1 2/2/1 3/3/1 4/4/1
f 5/5/2 6/6/2 7/7/2 8/8/2
f 9/9/3 10/10/3 11/11/3 12/12/3
f 13/13/4 14/14/4 15/15/4 16/16/4
o Plane.003
v -0.087851 0.285112 0.217733
v 0.758798 1.131760 0.217733
v 0.758798 1.131760 1.354163
v -0.087851 0.285112 1.354163
v 0.365845 1.131330 0.217733
v 1.190019 0.262787 0.217733
v 1.190019 0.262787 1.354163
v 0.365845 1.131330 1.354163
v 0.085842 0.969600 0.217733
v 1.220758 0.588032 0.217733
v 1.220758 0.588032 1.354163
v 0.085842 0.969600 1.354163
v -0.103416 0.631190 0.217733
v 1.052887 0.941982 0.217733
v 1.052887 0.941982 1.354163
v -0.103416 0.631190 1.354163
vt 0.000000 0.000000
vt 1.000000 0.000000
vt 1.000000 1.000000
vt 0.000000 1.000000
vt 0.000000 0.000000
vt 1.000000 0.000000
vt 1.000000 1.000000
vt 0.000000 1.000000
vt 0.000000 0.000000
vt 1.000000 0.000000
vt 1.000000 1.000000
vt 0.000000 1.000000
vt 0.000000 0.000000
vt 1.000000 0.000000
vt 1.000000 1.000000
vt 0.000000 1.000000
vn 0.7071 -0.7071 0.0000
vn -0.7254 -0.6883 0.0000
vn -0.3187 -0.9479 0.0000
vn 0.2596 -0.9657 0.0000
usemtl None.002
s 1
f 17/17/5 18/18/5 19/19/5 20/20/5
f 21/21/6 22/22/6 23/23/6 24/24/6
f 25/25/7 26/26/7 27/27/7 28/28/7
f 29/29/8 30/30/8 31/31/8 32/32/8
o Plane.004
v 0.694871 1.144695 0.217733
v 1.004765 -0.011848 0.217733
v 1.004765 -0.011848 1.354163
v 0.694871 1.144695 1.354163
v 1.204624 0.326353 0.217733
v 0.040358 0.046870 0.217733
v 0.040358 0.046870 1.354163
v 1.204624 0.326353 1.354163
v 1.203901 0.651038 0.217733
v 0.305996 -0.141043 0.217733
v 0.305996 -0.141043 1.354163
v 1.203901 0.651038 1.354163
v 1.003959 0.985109 0.217733
v 0.694961 -0.171674 0.217733
v 0.694961 -0.171674 1.354163
v 1.003959 0.985109 1.354163
vt 0.000000 0.000000
vt 1.000000 0.000000
vt 1.000000 1.000000
vt 0.000000 1.000000
vt 0.000000 0.000000
vt 1.000000 0.000000
vt 1.000000 1.000000
vt 0.000000 1.000000
vt 0.000000 0.000000
vt 1.000000 0.000000
vt 1.000000 1.000000
vt 0.000000 1.000000
vt 0.000000 0.000000
vt 1.000000 0.000000
vt 1.000000 1.000000
vt 0.000000 1.000000
vn -0.9659 -0.2588 0.0000
vn -0.2334 0.9724 0.0000
vn -0.6615 0.7499 0.0000
vn -0.9661 0.2581 0.0000
usemtl None.002
s 1
f 33/33/9 34/34/9 35/35/9 36/36/9
f 37/37/10 38/38/10 39/39/10 40/40/10
f 41/41/11 42/42/11 43/43/11 44/44/11
f 45/45/12 46/46/12 47/47/12 48/48/12
