# Blender v3.5.0 OBJ File: 'leaf_model_cube.blend'
# www.blender.org
mtllib leaf_model_uvs.mtl
o plane.005
v 1.250000 1.250000 0.000000
v 1.250000 -0.250000 0.000000
v -0.250000 -0.250000 0.000000
v -0.250000 1.250000 0.000000
v 1.250000 1.250000 1.000000
v -0.250000 1.250000 1.000000
v -0.250000 -0.250000 1.000000
v 1.250000 -0.250000 1.000000
v 1.000000 1.250000 -0.250000
v 1.000000 1.250000 1.250000
v 1.000000 -0.250000 1.250000
v 1.000000 -0.250000 -0.250000
v 0.000000 1.250000 -0.250000
v -0.000000 -0.250000 -0.250000
v -0.000000 -0.250000 1.250000
v 0.000000 1.250000 1.250000
v 1.250000 1.000000 1.250000
v 1.250000 1.000000 -0.250000
v -0.250000 1.000000 -0.250000
v -0.250000 1.000000 1.250000
v 1.250000 -0.000000 1.250000
v -0.250000 0.000000 1.250000
v -0.250000 0.000000 -0.250000
v 1.250000 -0.000000 -0.250000
vt 0.493833 0.495754
vt 0.257834 0.495754
vt 0.257834 0.259755
vt 0.493833 0.259755
vt 0.508897 0.259755
vt 0.744896 0.259755
vt 0.744896 0.495754
vt 0.508897 0.495754
vt 0.493833 0.746817
vt 0.257834 0.746817
vt 0.257834 0.510818
vt 0.493833 0.510818
vt 0.242770 0.495754
vt 0.006771 0.495754
vt 0.006771 0.259755
vt 0.242770 0.259755
vt 0.006771 0.510818
vt 0.242770 0.510818
vt 0.242770 0.746817
vt 0.006771 0.746817
vt 0.242770 0.997879
vt 0.006771 0.997879
vt 0.006771 0.761880
vt 0.242770 0.761880
vn 0.0000 0.0000 -1.0000
vn 0.0000 0.0000 1.0000
vn 1.0000 -0.0000 0.0000
vn -1.0000 0.0000 0.0000
vn 0.0000 1.0000 0.0000
vn -0.0000 -1.0000 0.0000
usemtl m_75deb572-5792-a0e4-19cb-9cbeab81505f.001
s 1
f 1/1/1 2/2/1 3/3/1 4/4/1
f 5/5/2 6/6/2 7/7/2 8/8/2
f 9/9/3 10/10/3 11/11/3 12/12/3
f 13/13/4 14/14/4 15/15/4 16/16/4
f 17/17/5 18/18/5 19/19/5 20/20/5
f 21/21/6 22/22/6 23/23/6 24/24/6
