# Blender v2.83.5 OBJ File: ''
# www.blender.org
mtllib leaf_model_cube_with_planes.mtl
o plane.001
v 1.250000 1.250000 0.000000
v 1.250000 -0.250000 0.000000
v -0.250000 -0.250000 0.000000
v -0.250000 1.250000 0.000000
v 1.250000 1.250000 1.000000
v -0.250000 1.250000 1.000000
v -0.250000 -0.250000 1.000000
v 1.250000 -0.250000 1.000000
v 1.000000 1.250000 -0.250000
v 1.000000 1.250000 1.250000
v 1.000000 -0.250000 1.250000
v 1.000000 -0.250000 -0.250000
v 0.000000 1.250000 -0.250000
v -0.000000 -0.250000 -0.250000
v -0.000000 -0.250000 1.250000
v 0.000000 1.250000 1.250000
v 1.250000 1.000000 1.250000
v 1.250000 1.000000 -0.250000
v -0.250000 1.000000 -0.250000
v -0.250000 1.000000 1.250000
v 1.250000 -0.000000 1.250000
v -0.250000 0.000000 1.250000
v -0.250000 0.000000 -0.250000
v 1.250000 -0.000000 -0.250000
v -0.347152 1.347588 1.450012
v -0.347152 1.347588 -0.450166
v -0.347152 -0.347588 -0.449857
v 1.348023 1.347588 -0.450167
v -0.347152 -0.347588 1.450012
v 1.348023 1.347588 1.450012
v 1.348023 -0.347588 -0.449858
v 1.348023 -0.347588 1.450012
vt 0.503972 0.999807
vt 0.503972 0.500112
vt 1.001789 0.500112
vt 1.001789 0.999888
vt 1.001789 0.500194
vt 1.001789 0.999888
vt 0.503972 0.999888
vt 0.503972 0.500112
vt 0.493833 0.495754
vt 0.257834 0.495754
vt 0.257834 0.259755
vt 0.493833 0.259755
vt 0.508897 0.259755
vt 0.744896 0.259755
vt 0.744896 0.495754
vt 0.508897 0.495754
vt 0.493833 0.746817
vt 0.257834 0.746817
vt 0.257834 0.510818
vt 0.493833 0.510818
vt 0.242770 0.495754
vt 0.006771 0.495754
vt 0.006771 0.259755
vt 0.242770 0.259755
vt 0.006771 0.510818
vt 0.242770 0.510818
vt 0.242770 0.746817
vt 0.006771 0.746817
vt 0.242770 0.997879
vt 0.006771 0.997879
vt 0.006771 0.761880
vt 0.242770 0.761880
vn -0.7071 -0.7071 0.0000
vn -0.7071 0.7071 0.0000
vn 0.0000 0.0000 -1.0000
vn 0.0000 0.0000 1.0000
vn 1.0000 -0.0000 0.0000
vn -1.0000 0.0000 0.0000
vn 0.0000 1.0000 0.0000
vn -0.0000 -1.0000 0.0000
usemtl m_75deb572-5792-a0e4-19cb-9cbeab81505f.002
s off
f 31/1/1 32/2/1 25/3/1 26/4/1
f 27/5/2 29/6/2 30/7/2 28/8/2
s 1
f 1/9/3 2/10/3 3/11/3 4/12/3
f 5/13/4 6/14/4 7/15/4 8/16/4
f 9/17/5 10/18/5 11/19/5 12/20/5
f 13/21/6 14/22/6 15/23/6 16/24/6
f 17/25/7 18/26/7 19/27/7 20/28/7
f 21/29/8 22/30/8 23/31/8 24/32/8
