# Blender 4.5.1 LTS
# www.blender.org
mtllib leaf_model_cube_2x.mtl
o plane.001
v 1.500000 1.500000 0.000000
v 1.500000 -0.500000 0.000000
v -0.500000 -0.500000 0.000000
v -0.500000 1.500000 0.000000
v 1.500000 1.500000 1.000000
v -0.500000 1.500000 1.000000
v -0.500000 -0.500000 1.000000
v 1.500000 -0.500000 1.000000
v 1.000000 1.500000 -0.500000
v 1.000000 1.500000 1.500000
v 1.000000 -0.500000 1.500000
v 1.000000 -0.500000 -0.500000
v -0.000000 1.500000 -0.500000
v 0.000000 -0.500000 -0.500000
v 0.000000 -0.500000 1.500000
v -0.000000 1.500000 1.500000
v 1.500000 1.000000 1.500000
v 1.500000 1.000000 -0.500000
v -0.500000 1.000000 -0.500000
v -0.500000 1.000000 1.500000
v 1.500000 0.000000 1.500000
v -0.500000 -0.000000 1.500000
v -0.500000 -0.000000 -0.500000
v 1.500000 0.000000 -0.500000
vn -0.0000 -0.0000 -1.0000
vn -0.0000 -0.0000 1.0000
vn 1.0000 -0.0000 -0.0000
vn -1.0000 -0.0000 -0.0000
vn -0.0000 1.0000 -0.0000
vn -0.0000 -1.0000 -0.0000
vt 0.000000 1.000000
vt 0.000000 0.000000
vt 1.000000 0.000000
vt 1.000000 1.000000
s 1
usemtl m_75deb572-5792-a0e4-19cb-9cbeab81505f.002
f 1/1/1 2/2/1 3/3/1 4/4/1
f 5/2/2 6/3/2 7/4/2 8/1/2
f 9/4/3 10/1/3 11/2/3 12/3/3
f 13/2/4 14/3/4 15/4/4 16/1/4
f 17/1/5 18/2/5 19/3/5 20/4/5
f 21/2/6 22/3/6 23/4/6 24/1/6
