# Blender v2.83.5 OBJ File: ''
# www.blender.org
mtllib leaf_model.mtl
o Plane
v 1.000000 0.000000 0.000000
v 1.000000 1.000000 1.000000
v 0.000000 0.000000 0.000000
v 0.000000 1.000000 1.000000
v 0.000000 1.000000 0.000000
v 1.000000 0.000000 1.000000
v 0.000000 0.000000 1.000000
v 1.000000 1.000000 0.000000
v 1.000000 1.000000 0.000000
v 0.000000 1.000000 1.000000
v 1.000000 -0.000000 0.000000
v -0.000000 0.000000 1.000000
v 0.000000 0.000000 0.000000
v 1.000000 1.000000 1.000000
v 1.000000 0.000000 1.000000
v 0.000000 1.000000 0.000000
v -0.207000 1.207000 -0.292000
v 1.207000 -0.207000 1.293000
v 1.207000 -0.207000 -0.292000
v -0.207000 1.207000 1.292742
v 1.207000 1.207000 -0.292000
v -0.207000 -0.207000 -0.292000
v 1.207000 1.207000 1.293000
v -0.207000 -0.207000 1.292742
vt 0.000000 0.000000
vt 0.000000 1.000000
vt 1.000000 1.000000
vt 1.000000 0.000000
vt 0.000000 0.000000
vt 0.000000 1.000000
vt 1.000000 1.000000
vt 1.000000 0.000000
vt 0.000000 0.000000
vt 0.000000 1.000000
vt 1.000000 1.000000
vt 1.000000 0.000000
vt 0.000000 0.000000
vt 0.000000 1.000000
vt 1.000000 1.000000
vt 1.000000 0.000000
vt 0.000000 0.000000
vt 0.000000 1.000000
vt 1.000000 1.000000
vt 1.000000 0.000000
vt 0.000000 0.000000
vt 0.000000 1.000000
vt 1.000000 1.000000
vt 1.000000 0.000000
vn 0.0000 0.7071 -0.7071
vn -0.7071 -0.7071 0.0000
vn 0.7071 -0.7071 0.0000
vn 0.7071 0.0000 -0.7071
vn 0.0000 -0.7071 -0.7071
vn -0.7071 0.0000 -0.7071
usemtl None
s off
f 1/1/1 3/2/1 4/3/1 2/4/1
f 19/5/2 18/6/2 20/7/2 17/8/2
f 21/9/3 23/10/3 24/11/3 22/12/3
f 13/13/4 16/14/4 14/15/4 15/16/4
f 5/17/5 8/18/5 6/19/5 7/20/5
f 9/21/6 11/22/6 12/23/6 10/24/6
