# Blender v2.83.5 OBJ File: ''
# www.blender.org
mtllib voxel_model.mtl
o Plane
v 1.000000 0.000000 0.000000
v 1.000000 1.000000 0.000000
v 0.000000 0.000000 0.000000
v 0.000000 1.000000 0.000000
v 1.000000 0.000000 1.000000
v 1.000000 1.000000 1.000000
v 0.000000 0.000000 1.000000
v 0.000000 1.000000 1.000000
vt 0.000000 0.000000
vt 0.000000 1.000000
vt 1.000000 1.000000
vt 1.000000 0.000000
vt 0.000000 0.000000
vt 1.000000 0.000000
vt 1.000000 1.000000
vt 0.000000 1.000000
vn 0.0000 0.0000 -1.0000
vn 0.0000 0.0000 1.0000
vn 1.0000 0.0000 0.0000
vn 0.0000 1.0000 0.0000
vn 0.0000 -1.0000 0.0000
vn -1.0000 0.0000 0.0000
usemtl None
s off
f 1/1/1 3/2/1 4/3/1 2/4/1
f 5/5/2 6/6/2 8/7/2 7/8/2
f 1/1/3 2/4/3 6/6/3 5/5/3
f 2/4/4 4/3/4 8/7/4 6/6/4
f 3/2/5 1/1/5 5/5/5 7/8/5
f 4/3/6 3/2/6 7/8/6 8/7/6
