# Blender 4.5.1 LTS
# www.blender.org
mtllib bush_model.mtl
o Plane.005
v -0.207107 1.207107 2.000000
v -0.207107 1.207107 0.000000
v 1.207107 -0.207107 2.000000
v 1.207107 -0.207107 -0.000000
v 1.500000 0.750000 -0.000000
v 1.500000 1.434040 1.879385
v -0.500000 0.750000 -0.000000
v -0.500000 1.434040 1.879385
v 0.250000 1.500000 0.000000
v -0.434040 1.500000 1.879385
v 0.250000 -0.500000 0.000000
v -0.434040 -0.500000 1.879385
v -0.500000 0.250000 -0.000000
v -0.500000 -0.434040 1.879385
v 1.500000 0.250000 -0.000000
v 1.500000 -0.434040 1.879385
v 0.750001 -0.500000 -0.000000
v 1.434041 -0.500000 1.879385
v 0.750000 1.500000 -0.000000
v 1.434040 1.500000 1.879385
v 1.207107 1.207107 2.000000
v 1.207107 1.207107 0.000000
v -0.207107 -0.207107 2.000000
v -0.207107 -0.207107 -0.000000
vn -0.7071 -0.7071 -0.0000
vn -0.0000 0.9397 -0.3420
vn -0.9397 -0.0000 -0.3420
vn -0.0000 0.9397 0.3420
vn -0.9397 -0.0000 0.3420
vn -0.7071 0.7071 -0.0000
vt 0.000000 1.000000
vt 0.000000 0.000000
vt 1.000000 0.000000
vt 1.000000 1.000000
vt 1.000000 0.000000
vt 0.000000 0.000000
vt 1.000000 0.000000
vt 0.000000 0.000000
s 0
f 1/1/1 2/2/1 4/3/1 3/4/1
f 5/5/2 7/6/2 8/1/2 6/4/2
f 9/5/3 11/6/3 12/1/3 10/4/3
f 13/7/4 14/4/4 16/1/4 15/8/4
f 17/7/5 18/4/5 20/1/5 19/8/5
f 21/1/6 22/2/6 24/3/6 23/4/6
