# Blender v2.83.5 OBJ File: ''
# www.blender.org
mtllib fence_0.mtl
o plane.006
v 0.625000 0.625000 1.000000
v 0.625000 0.375000 1.000000
v 0.625000 0.375000 -0.000000
v 0.625000 0.625000 -0.000000
vt 0.765485 0.995355
vt 0.508874 0.995355
vt 0.508874 0.001652
vt 0.765485 0.001652
vn 1.0000 0.0000 -0.0000
usemtl m_75deb572-5792-a0e4-19cb-9cbeab81505f.001
s 1
f 1/1/1 2/2/1 3/3/1 4/4/1
o plane.009
v 0.625000 0.625000 1.000000
v 0.375000 0.625000 1.000000
v 0.375000 0.375000 1.000000
v 0.625000 0.375000 1.000000
vt 0.274856 0.003253
vt 0.274856 0.268937
vt 0.000417 0.268937
vt 0.000417 0.003253
vn 0.0000 0.0000 1.0000
usemtl m_75deb572-5792-a0e4-19cb-9cbeab81505f.001
s 1
f 5/5/2 6/6/2 7/7/2 8/8/2
o plane.010
v 0.625000 0.625000 -0.000000
v 0.625000 0.375000 -0.000000
v 0.375000 0.375000 -0.000000
v 0.375000 0.625000 -0.000000
vt 0.274856 0.003253
vt 0.549294 0.003253
vt 0.549294 0.268938
vt 0.274856 0.268938
vn -0.0000 0.0000 -1.0000
usemtl m_75deb572-5792-a0e4-19cb-9cbeab81505f.001
s 1
f 9/9/3 10/10/3 11/11/3 12/12/3
o plane.001_plane.003
v 0.375000 0.375000 1.000000
v 0.375000 0.625000 1.000000
v 0.375000 0.625000 -0.000000
v 0.375000 0.375000 -0.000000
vt 0.765485 0.995355
vt 0.508874 0.995355
vt 0.508874 0.001652
vt 0.765485 0.001652
vn -1.0000 -0.0000 -0.0000
usemtl m_75deb572-5792-a0e4-19cb-9cbeab81505f.001
s 1
f 13/13/4 14/14/4 15/15/4 16/16/4
o plane.002_plane.004
v 0.625000 0.375000 1.000000
v 0.375000 0.375000 1.000000
v 0.375000 0.375000 -0.000000
v 0.625000 0.375000 -0.000000
vt 0.765485 0.995355
vt 0.508874 0.995355
vt 0.508874 0.001652
vt 0.765485 0.001652
vn 0.0000 -1.0000 -0.0000
usemtl m_75deb572-5792-a0e4-19cb-9cbeab81505f.001
s 1
f 17/17/5 18/18/5 19/19/5 20/20/5
o plane.003_plane.011
v 0.375000 0.625000 1.000000
v 0.625000 0.625000 1.000000
v 0.625000 0.625000 -0.000000
v 0.375000 0.625000 -0.000000
vt 0.765485 0.995355
vt 0.508874 0.995355
vt 0.508874 0.001652
vt 0.765485 0.001652
vn -0.0000 1.0000 0.0000
usemtl m_75deb572-5792-a0e4-19cb-9cbeab81505f.001
s 1
f 21/21/6 22/22/6 23/23/6 24/24/6
