# Blender v2.83.5 OBJ File: ''
# www.blender.org
mtllib fence_1.mtl
o plane.005
v 0.375000 0.625000 1.000000
v 0.375000 0.625000 -0.000000
v 0.375000 0.375000 -0.000000
v 0.375000 0.375000 1.000000
vt 0.257192 0.005807
vt 0.257192 0.994300
vt 0.001926 0.994300
vt 0.001926 0.005807
vn -1.0000 0.0000 0.0000
usemtl m_75deb572-5792-a0e4-19cb-9cbeab81505f.001
s 1
f 1/1/1 2/2/1 3/3/1 4/4/1
o plane.006
v 0.625000 0.625000 1.000000
v 0.625000 0.375000 1.000000
v 0.625000 0.375000 -0.000000
v 0.625000 0.625000 -0.000000
vt 0.765485 0.995355
vt 0.508874 0.995355
vt 0.508874 0.001652
vt 0.765485 0.001652
vn 1.0000 0.0000 -0.0000
usemtl m_75deb572-5792-a0e4-19cb-9cbeab81505f.001
s 1
f 5/5/2 6/6/2 7/7/2 8/8/2
o plane.007
v 0.375000 0.625000 1.000000
v 0.625000 0.625000 1.000000
v 0.625000 0.625000 -0.000000
v 0.375000 0.625000 -0.000000
v 0.375000 0.625000 0.774596
v 0.625000 0.625000 0.774595
v 0.375000 0.625000 0.378473
v 0.625000 0.625000 0.378472
v 0.559395 0.625000 0.672381
v 0.440605 0.625000 0.672381
v 0.440605 0.625000 0.465424
v 0.559395 0.625000 0.465424
v 0.438833 0.625000 0.293638
v 0.438833 0.625000 0.084834
v 0.561167 0.625000 0.293638
v 0.561167 0.625000 0.084834
v 0.438833 1.000000 0.293638
v 0.438833 1.000000 0.084834
v 0.561167 1.000000 0.293638
v 0.561167 1.000000 0.084834
v 0.440605 1.000000 0.672381
v 0.440605 1.000000 0.465424
v 0.559395 1.000000 0.672381
v 0.559395 1.000000 0.465424
vt 0.006747 0.340874
vt 0.006747 0.181657
vt 0.493334 0.181657
vt 0.493334 0.340874
vt 0.504405 0.994673
vt 0.248146 0.994673
vt 0.248146 0.770995
vt 0.504405 0.770995
vt 0.984821 0.178323
vt 0.984821 0.342291
vt 0.498234 0.342290
vt 0.498234 0.178323
vt 0.315394 0.669564
vt 0.437158 0.669564
vt 0.437158 0.464192
vt 0.504405 0.377907
vt 0.315394 0.464192
vt 0.248146 0.377907
vt 0.438974 0.293723
vt 0.438974 0.086519
vt 0.504405 0.002334
vt 0.313577 0.086519
vt 0.313577 0.293723
vt 0.248146 0.002334
vt 0.004726 0.008249
vt 0.200333 0.008249
vt 0.200333 0.331467
vt 0.004726 0.331467
vt 0.409948 0.329285
vt 0.220008 0.329285
vt 0.220008 0.008925
vt 0.409948 0.008925
vt 0.001523 0.760215
vt 0.001523 0.536651
vt 0.393690 0.536651
vt 0.393690 0.760215
vt 0.981501 0.010819
vt 0.981501 0.170452
vt 0.493641 0.170452
vt 0.493641 0.010819
vt 0.398506 0.761809
vt 0.398506 0.534886
vt 0.793047 0.534886
vt 0.793047 0.761809
vt 0.395612 0.767276
vt 0.395612 0.993318
vt 0.002602 0.993318
vt 0.002602 0.767276
vt 0.395612 0.993318
vt 0.395612 0.769274
vt 0.788622 0.769274
vt 0.788622 0.993318
vt 0.493641 0.006055
vt 0.493641 0.170452
vt 0.005780 0.170452
vt 0.005780 0.006055
vn 0.0000 0.0000 1.0000
vn 0.0000 1.0000 0.0000
vn 1.0000 0.0000 0.0000
vn -0.0000 0.0000 -1.0000
vn -1.0000 0.0000 0.0000
usemtl m_75deb572-5792-a0e4-19cb-9cbeab81505f.001
s off
f 18/9/3 17/10/3 31/11/3 29/12/3
f 9/13/4 10/14/4 14/15/4 13/16/4
f 21/17/3 23/18/3 27/19/3 25/20/3
f 17/21/4 18/22/4 13/16/4 14/15/4
f 18/22/4 19/23/4 15/24/4 13/16/4
f 20/25/4 17/21/4 14/15/4 16/26/4
f 19/23/4 20/25/4 16/26/4 15/24/4
f 21/27/4 22/28/4 12/29/4 15/24/4
f 24/30/4 23/31/4 16/26/4 11/32/4
f 22/28/4 24/30/4 11/32/4 12/29/4
f 23/31/4 21/27/4 15/24/4 16/26/4
f 25/33/4 27/34/4 28/35/4 26/36/4
f 29/37/4 31/38/4 32/39/4 30/40/4
f 17/41/5 20/42/5 32/43/5 31/44/5
f 20/45/6 19/46/6 30/47/6 32/48/6
f 23/49/5 24/50/5 28/51/5 27/52/5
f 22/53/7 21/54/7 25/55/7 26/56/7
f 19/57/7 18/58/7 29/59/7 30/60/7
f 24/61/6 22/62/6 26/63/6 28/64/6
o plane.008
v 0.375000 0.375000 1.000000
v 0.375000 0.375000 -0.000000
v 0.625000 0.375000 -0.000000
v 0.625000 0.375000 1.000000
vt 0.737745 0.996602
vt 0.737746 0.000405
vt 0.995001 0.000405
vt 0.995001 0.996602
vn 0.0000 -1.0000 0.0000
usemtl m_75deb572-5792-a0e4-19cb-9cbeab81505f.001
s 1
f 33/65/8 34/66/8 35/67/8 36/68/8
o plane.009
v 0.625000 0.625000 1.000000
v 0.375000 0.625000 1.000000
v 0.375000 0.375000 1.000000
v 0.625000 0.375000 1.000000
vt 0.274856 0.003253
vt 0.274856 0.268937
vt 0.000417 0.268937
vt 0.000417 0.003253
vn 0.0000 0.0000 1.0000
usemtl m_75deb572-5792-a0e4-19cb-9cbeab81505f.001
s 1
f 37/69/9 38/70/9 39/71/9 40/72/9
o plane.010
v 0.625000 0.625000 -0.000000
v 0.625000 0.375000 -0.000000
v 0.375000 0.375000 -0.000000
v 0.375000 0.625000 -0.000000
vt 0.274856 0.003253
vt 0.549294 0.003253
vt 0.549294 0.268938
vt 0.274856 0.268938
vn -0.0000 0.0000 -1.0000
usemtl m_75deb572-5792-a0e4-19cb-9cbeab81505f.001
s 1
f 41/73/10 42/74/10 43/75/10 44/76/10
