# Blender 4.5.1 LTS
# www.blender.org
mtllib grass_model_3_quad_offset_16x8.mtl
o Plane
v 1.107107 1.307107 0.000000
v 1.107107 1.307107 1.000000
v -0.307107 -0.107107 0.000000
v -0.307107 -0.107107 1.000000
v 0.895422 -0.429323 0.000000
v 0.895422 -0.429323 1.000000
v 0.377784 1.502529 0.000000
v 0.377783 1.502529 1.000000
v -0.502528 0.622216 0.000000
v -0.502528 0.622216 1.000000
v 1.429323 0.104578 0.000000
v 1.429324 0.104578 1.000000
vn 0.7071 -0.7071 -0.0000
vn -0.9659 -0.2588 -0.0000
vn 0.2588 0.9659 -0.0000
vt 1.000000 0.000000
vt 1.000000 0.500000
vt 0.000000 0.500000
vt 0.000000 0.000000
s 0
f 1/1/1 2/2/1 4/3/1 3/4/1
f 5/1/2 6/2/2 8/3/2 7/4/2
f 9/1/3 10/2/3 12/3/3 11/4/3
