# Blender v2.83.5 OBJ File: ''
# www.blender.org
mtllib grass_model.mtl
o Plane.001
v -0.465780 0.758780 0.000000
v 1.465780 0.241220 0.000000
v 1.465780 0.241220 1.879561
v -0.465780 0.758780 1.879561
vt 0.000000 0.000000
vt 1.000000 0.000000
vt 1.000000 1.000000
vt 0.000000 1.000000
vn -0.2588 -0.9659 0.0000
usemtl None.001
s 1
f 1/1/1 2/2/1 3/3/1 4/4/1
o Plane.002
v -0.207000 -0.207000 0.000000
v -0.207000 -0.207000 1.879561
v 1.207000 1.207000 0.000000
v 1.207000 1.207000 1.879561
vt 0.000000 0.000000
vt 1.000000 0.000000
vt 1.000000 1.000000
vt 0.000000 1.000000
vn 0.7071 -0.7071 0.0000
usemtl None.001
s 1
f 5/5/2 7/6/2 8/7/2 6/8/2
o Plane.003
v 0.241220 1.465780 0.000000
v 0.241220 1.465780 1.879561
v 0.758780 -0.465780 0.000000
v 0.758780 -0.465780 1.879561
vt 0.000000 0.000000
vt 1.000000 0.000000
vt 1.000000 1.000000
vt 0.000000 1.000000
vn -0.9659 -0.2588 0.0000
usemtl None.001
s 1
f 9/9/3 11/10/3 12/11/3 10/12/3
