# Blender v2.83.5 OBJ File: ''
# www.blender.org
mtllib grass_model_small_extended.mtl.mtl
o Plane.002
v -0.073620 0.501327 0.217733
v 1.082923 0.191432 0.217733
v 1.082923 0.191432 1.354163
v -0.073620 0.501327 1.354163
vt 0.000000 0.000000
vt 1.000000 0.000000
vt 1.000000 1.000000
vt 0.000000 1.000000
vn -0.2588 -0.9659 0.0000
usemtl None.002
s 1
f 1/1/1 2/2/1 3/3/1 4/4/1
o Plane.003
v 0.027433 0.197676 0.217733
v 0.874082 1.044324 0.217733
v 0.874082 1.044324 1.354163
v 0.027433 0.197676 1.354163
vt 0.000000 0.000000
vt 1.000000 0.000000
vt 1.000000 1.000000
vt 0.000000 1.000000
vn 0.7071 -0.7071 0.0000
usemtl None.002
s 1
f 5/5/2 6/6/2 7/7/2 8/8/2
o Plane.004
v 0.538425 1.117494 0.217733
v 0.848319 -0.039049 0.217733
v 0.848319 -0.039049 1.354163
v 0.538425 1.117494 1.354163
vt 0.000000 0.000000
vt 1.000000 0.000000
vt 1.000000 1.000000
vt 0.000000 1.000000
vn -0.9659 -0.2588 0.0000
usemtl None.002
s 1
f 9/9/3 10/10/3 11/11/3 12/12/3
