# Blender v2.83.5 OBJ File: 'grass_model.blend'
# www.blender.org
mtllib grass_model_small_2.mtl
o Plane.001
v -0.118127 0.616784 0.010242
v 1.142249 0.279066 0.010242
v 1.142249 0.279066 1.248699
v -0.118127 0.616784 1.248699
vt 0.000000 0.000000
vt 1.000000 0.000000
vt 1.000000 1.000000
vt 0.000000 1.000000
vn -0.2588 -0.9659 0.0000
usemtl None.001
s 1
f 1/1/1 2/2/1 3/3/1 4/4/1
o Plane.005
v 0.061956 0.062353 0.011258
v 0.984616 0.985012 0.011258
v 0.984616 0.985012 1.249715
v 0.061956 0.062353 1.249715
vt 0.000000 0.000000
vt 1.000000 0.000000
vt 1.000000 1.000000
vt 0.000000 1.000000
vn 0.7071 -0.7071 0.0000
usemtl None.001
s 1
f 5/5/2 6/6/2 7/7/2 8/8/2
o Plane.006
v 0.397380 1.124959 0.011374
v 0.735096 -0.135417 0.011374
v 0.735096 -0.135417 1.249831
v 0.397380 1.124959 1.249831
vt 0.000000 0.000000
vt 1.000000 0.000000
vt 1.000000 1.000000
vt 0.000000 1.000000
vn -0.9659 -0.2588 0.0000
usemtl None.001
s 1
f 9/9/3 10/10/3 11/11/3 12/12/3
