# Blender v2.83.5 OBJ File: ''
# www.blender.org
mtllib grass_model_small.mtl
o Plane.001
v -0.299858 0.714321 0.000000
v 1.299858 0.285678 0.000000
v 1.299858 0.285678 1.571896
v -0.299858 0.714321 1.571896
vt 0.000000 0.000000
vt 1.000000 0.000000
vt 1.000000 1.000000
vt 0.000000 1.000000
vn -0.2588 -0.9659 0.0000
usemtl None.001
s 1
f 1/1/1 2/2/1 3/3/1 4/4/1
o Plane.002
v -0.085537 -0.085537 0.000000
v -0.085537 -0.085537 1.571896
v 1.085537 1.085537 0.000000
v 1.085537 1.085537 1.571896
vt 0.000000 0.000000
vt 1.000000 0.000000
vt 1.000000 1.000000
vt 0.000000 1.000000
vn 0.7071 -0.7071 0.0000
usemtl None.001
s 1
f 5/5/2 7/6/2 8/7/2 6/8/2
o Plane.003
v 0.285679 1.299858 0.000000
v 0.285679 1.299858 1.571896
v 0.714321 -0.299858 0.000000
v 0.714321 -0.299858 1.571896
vt 0.000000 0.000000
vt 1.000000 0.000000
vt 1.000000 1.000000
vt 0.000000 1.000000
vn -0.9659 -0.2588 0.0000
usemtl None.001
s 1
f 9/9/3 11/10/3 12/11/3 10/12/3
