# Blender v2.83.5 OBJ File: 'grass_model_tall.blend'
# www.blender.org
mtllib grass_model_3_quad_offset_16x16.mtl
o Plane
v 1.107107 1.307107 0.000000
v 1.107107 1.307107 2.000000
v -0.307107 -0.107107 2.000000
v -0.307107 -0.107107 0.000000
v 0.895422 -0.429323 0.000000
v 0.895422 -0.429323 2.000000
v 0.377783 1.502529 2.000000
v 0.377784 1.502529 0.000000
v -0.502528 0.622216 0.000000
v -0.502528 0.622216 2.000000
v 1.429324 0.104578 2.000000
v 1.429323 0.104578 0.000000
vt 1.000000 0.000000
vt 1.000000 1.000000
vt 0.000000 1.000000
vt 0.000000 0.000000
vt 1.000000 0.000000
vt 1.000000 1.000000
vt 0.000000 1.000000
vt 0.000000 0.000000
vt 1.000000 0.000000
vt 1.000000 1.000000
vt 0.000000 1.000000
vt 0.000000 0.000000
vn 0.7071 -0.7071 0.0000
vn -0.9659 -0.2588 -0.0000
vn 0.2588 0.9659 -0.0000
usemtl Default_OBJ
s 1
f 1/1/1 2/2/1 3/3/1 4/4/1
f 5/5/2 6/6/2 7/7/2 8/8/2
f 9/9/3 10/10/3 11/11/3 12/12/3
