# Blender v2.83.5 OBJ File: 'leaf_model_baked.blend'
# www.blender.org
mtllib leaf_model_3.mtl
o Plane.001
v 1.207000 -0.207000 -0.292000
v 1.207000 -0.207000 1.293000
v -0.207000 1.207000 1.292742
v -0.207000 1.207000 -0.292000
v 1.207000 1.207000 -0.292000
v 1.207000 1.207000 1.293000
v -0.207000 -0.207000 1.292742
v -0.207000 -0.207000 -0.292000
v 1.917565 0.502966 0.500436
v 0.489076 1.896575 0.500436
v -0.924741 0.482392 0.500435
v 0.503566 -0.911034 0.500435
vt 0.511071 0.986583
vt 0.511071 0.511997
vt 0.989865 0.512059
vt 0.989865 0.986583
vt 0.513654 0.504410
vt 0.509004 0.009882
vt 0.985780 0.009945
vt 0.990431 0.504410
vt 0.007011 0.009121
vt 0.502029 0.009121
vt 0.502029 0.505156
vt 0.007011 0.505156
vn -0.7071 -0.7071 0.0000
vn 0.7071 -0.7071 0.0000
vn -0.0000 -0.0000 1.0000
usemtl None.001
s 1
f 1/1/1 2/2/1 3/3/1 4/4/1
f 5/5/2 6/6/2 7/7/2 8/8/2
f 9/9/3 10/10/3 11/11/3 12/12/3
